# xmcd
#
# Track frame offsets:
#	151
#	23259
#	41646
#	63425
#	76440
#	100494
#	115761
#	136476
#	155088
#	174869
#
# Disc length: 2737 seconds
#
# Revision: 1
# Processed by: cddbd v1.5.1PL0 Copyright (c) Steve Scherf et al.
# Submitted via: audiograbber 1.82.01
#
DISCID=790aaf0a
DTITLE=Vargas Blues Band - All around blues
DYEAR=1900
DGENRE=Blues
TTITLE0=Riding High
TTITLE1=Rock me baby
TTITLE2=Blues latino
TTITLE3=All around blues
TTITLE4=Hideway
TTITLE5=Messin´with the kid
TTITLE6=I wonder if you ever
TTITLE7=Blue midnight
TTITLE8=You don´t know my name
TTITLE9=Everything is going to be alright
EXTD=
EXTT0=
EXTT1=
EXTT2=
EXTT3=
EXTT4=
EXTT5=
EXTT6=
EXTT7=
EXTT8=
EXTT9=
PLAYORDER=
